<?xml version="1.0" encoding="UTF-8" standalone="no"?> <svg width="64" height="64" viewBox="0 0 64 64" fill="none" xmlns="http://www.w3.org/2000/svg">
<path d="M61 38H56C48.1 38 40.4 34.7 35 29V23.5C38.5 22.3 41 18.9 41 15C41 8.60001 32.9 2.50001 32.6 2.20001C32.2 1.90001 31.8 1.90001 31.4 2.20001C31.1 2.50001 23 8.60001 23 15C23 18.9 25.5 22.2 29 23.5V29C23.6 34.7 16 38 8.1 38H3C2.5 38 2 38.5 2 39C2 51.7 12.3 62 25 62H39C51.7 62 62 51.7 62 39C62 38.5 61.5 38 61 38ZM32 16.3C32.8 17 34 18.3 34 20C34 21.1 33.1 22 32 22C30.9 22 30 21.1 30 20C30 18.3 31.2 16.9 32 16.3ZM33 23.9V26.6C33 26.5 32.9 26.5 32.8 26.4C32.7 26.1 32.4 26 32 26C31.7 26 31.4 26.1 31.2 26.4L31.1 26.5C31 26.6 31 26.6 30.9 26.7V23.9C31.2 23.9 31.6 24 31.9 24C32.2 24 32.7 24 33 23.9ZM9.3 53C8.5 52.1 7.8 51.2 7.2 50.2C7.5 49.5 8.2 49 9 49C10.1 49 11 49.9 11 51C11 52 10.3 52.8 9.3 53ZM21.3 57L16.7 58.3C15.8 57.9 14.9 57.5 14.1 57L20.7 55.1C21.2 55 21.8 55.3 21.9 55.8C22.1 56.3 21.8 56.8 21.3 57ZM16 51C16 49.9 16.9 49 18 49C19.1 49 20 49.9 20 51C20 52.1 19.1 53 18 53C16.9 53 16 52.1 16 51ZM25 49C24.4 49 24 48.6 24 48C24 47.4 24.4 47 25 47H26C26.6 47 27 47.4 27 48C27 48.6 26.6 49 26 49H25ZM28.5 52.9L27.8 53.6C27.6 53.8 27.3 53.9 27.1 53.9C26.9 53.9 26.6 53.8 26.4 53.6C26 53.2 26 52.6 26.4 52.2L27.1 51.5C27.5 51.1 28.1 51.1 28.5 51.5C28.9 51.9 28.9 52.5 28.5 52.9ZM28.5 44.5C28.3 44.7 28 44.8 27.8 44.8C27.6 44.8 27.3 44.7 27.1 44.5L26.4 43.8C26 43.4 26 42.8 26.4 42.4C26.8 42 27.4 42 27.8 42.4L28.5 43.1C28.9 43.4 28.9 44.1 28.5 44.5ZM33 54.9C33 55.5 32.6 55.9 32 55.9C31.4 55.9 31 55.5 31 54.9V53.9C31 53.3 31.4 52.9 32 52.9C32.6 52.9 33 53.3 33 53.9V54.9ZM32 51C30.3 51 29 49.7 29 48C29 46.3 30.3 45 32 45C33.7 45 35 46.3 35 48C35 49.7 33.7 51 32 51ZM31 42V41C31 40.4 31.4 40 32 40C32.6 40 33 40.4 33 41V42C33 42.6 32.6 43 32 43C31.4 43 31 42.6 31 42ZM37.6 53.6C37.4 53.8 37.1 53.9 36.9 53.9C36.7 53.9 36.4 53.8 36.2 53.6L35.5 52.9C35.1 52.5 35.1 51.9 35.5 51.5C35.9 51.1 36.5 51.1 36.9 51.5L37.6 52.2C38 52.6 38 53.2 37.6 53.6ZM35.5 43L36.2 42.3C36.6 41.9 37.2 41.9 37.6 42.3C38 42.7 38 43.3 37.6 43.7L36.9 44.4C36.7 44.6 36.4 44.7 36.2 44.7C36 44.7 35.7 44.6 35.5 44.4C35.1 44.1 35.1 43.4 35.5 43ZM39 49H38C37.4 49 37 48.6 37 48C37 47.4 37.4 47 38 47H39C39.6 47 40 47.4 40 48C40 48.6 39.5 49 39 49ZM47 58.4L42.7 57C42.2 56.8 41.9 56.3 42.1 55.7C42.3 55.2 42.8 54.9 43.4 55.1L49.4 57.1C49.5 57.1 49.6 57.2 49.6 57.2C48.7 57.6 47.9 58 47 58.4ZM43 51C43 49.9 43.9 49 45 49C46.1 49 47 49.9 47 51C47 52.1 46.1 53 45 53C43.9 53 43 52.1 43 51ZM56 51.3C55.6 51.8 55.2 52.3 54.8 52.8C54.8 52.9 54.7 52.9 54.7 53H54.6C53.5 53 52.6 52.1 52.6 51C52.6 49.9 53.5 49 54.6 49C55.6 49 56.4 49.7 56.6 50.6C56.3 50.9 56.1 51.1 56 51.3ZM59.4 44H56C46.9 44 38.3 39.7 32.9 32.4C32.7 32.2 32.4 32 32.1 32C31.8 32 31.5 32.1 31.3 32.4L31.2 32.5C25.7 39.7 17.1 44 8.1 44H4.6C4.3 42.7 4.1 41.4 4 40H8.1C17.4 40 26.2 35.8 32 28.6C37.9 35.8 46.7 40 56 40H60C59.9 41.4 59.7 42.7 59.4 44Z" fill="black"/>
<path d="M43 10C43.2 10 43.3 10 43.4 9.90001L47.4 7.90001C47.9 7.70001 48.1 7.10001 47.8 6.60001C47.6 6.10001 47 5.90001 46.5 6.20001L42.5 8.20001C42 8.40001 41.8 9.00001 42.1 9.50001C42.3 9.80001 42.6 10 43 10Z" fill="black"/>
<path d="M43 14C43 14.6 43.4 15 44 15H50C50.6 15 51 14.6 51 14C51 13.4 50.6 13 50 13H44C43.4 13 43 13.4 43 14Z" fill="black"/>
<path d="M42.2 18.4C41.9 18.8 42 19.5 42.4 19.8L46.4 22.8C46.6 22.9 46.8 23 47 23C47.3 23 47.6 22.9 47.8 22.6C48.1 22.2 48 21.5 47.6 21.2L43.6 18.2C43.2 17.9 42.5 18 42.2 18.4Z" fill="black"/>
<path d="M16.6 7.90001L20.6 9.90001C20.7 10 20.8 10 21 10C21.4 10 21.7 9.80001 21.9 9.40001C22.1 8.90001 21.9 8.30001 21.5 8.10001L17.5 6.10001C17 5.90001 16.4 6.10001 16.2 6.50001C15.9 7.00001 16.1 7.60001 16.6 7.90001Z" fill="black"/>
<path d="M14 15H20C20.6 15 21 14.6 21 14C21 13.4 20.6 13 20 13H14C13.4 13 13 13.4 13 14C13 14.6 13.4 15 14 15Z" fill="black"/>
<path d="M20.4 18.2L16.4 21.2C16 21.5 15.9 22.2 16.2 22.6C16.4 22.9 16.7 23 17 23C17.2 23 17.4 22.9 17.6 22.8L21.6 19.8C22 19.5 22.1 18.8 21.8 18.4C21.5 18 20.8 17.9 20.4 18.2Z" fill="black"/>
</svg>
